<?xml version="1.0" encoding="UTF-8"?><svg xmlns="http://www.w3.org/2000/svg" xmlns:xlink="http://www.w3.org/1999/xlink" fill-opacity="1" color-rendering="auto" color-interpolation="auto" text-rendering="auto" stroke="black" stroke-linecap="square" width="948" stroke-miterlimit="10" shape-rendering="auto" stroke-opacity="1" fill="black" stroke-dasharray="none" font-weight="normal" stroke-width="1" height="225" font-family="'Dialog'" font-style="normal" stroke-linejoin="miter" font-size="12px" stroke-dashoffset="0" image-rendering="auto">
  <!--Generated by ySVG 2.5-->
  <defs id="genericDefs"/>
  <g>
    <defs id="defs1">
      <linearGradient x1="276" gradientUnits="userSpaceOnUse" x2="508" y1="72" y2="152" id="linearGradient1" spreadMethod="reflect">
        <stop stop-opacity="1" stop-color="white" offset="0%"/>
        <stop stop-opacity="1" stop-color="white" offset="100%"/>
      </linearGradient>
      <linearGradient x1="57" gradientUnits="userSpaceOnUse" x2="117" y1="-12.5" y2="47.5" id="linearGradient2" spreadMethod="reflect">
        <stop stop-opacity="0.902" stop-color="rgb(255,255,255)" offset="0%"/>
        <stop stop-opacity="1" stop-color="white" offset="100%"/>
      </linearGradient>
      <linearGradient x1="57" gradientUnits="userSpaceOnUse" x2="117" y1="-12.5" y2="47.5" id="linearGradient3" spreadMethod="reflect">
        <stop stop-opacity="0.902" stop-color="rgb(255,255,255)" offset="0%"/>
        <stop stop-opacity="1" stop-color="white" offset="100%"/>
      </linearGradient>
      <clipPath clipPathUnits="userSpaceOnUse" id="clipPath1">
        <path d="M0 0 L948 0 L948 225 L0 225 L0 0 Z"/>
      </clipPath>
      <clipPath clipPathUnits="userSpaceOnUse" id="clipPath2">
        <path d="M42 -28 L990 -28 L990 197 L42 197 L42 -28 Z"/>
      </clipPath>
      <clipPath clipPathUnits="userSpaceOnUse" id="clipPath3">
        <path d="M-88.9119 163.5556 L-88.9119 -679.1111 L111.0881 -679.1111 L111.0881 163.5556 L-88.9119 163.5556 Z"/>
      </clipPath>
      <clipPath clipPathUnits="userSpaceOnUse" id="clipPath4">
        <path d="M-586.4214 -132 L171.9786 -132 L171.9786 48 L-586.4214 48 L-586.4214 -132 Z"/>
      </clipPath>
    </defs>
    <g fill="white" text-rendering="geometricPrecision" shape-rendering="geometricPrecision" transform="translate(-42,28)" stroke="white">
      <rect x="42" width="948" height="225" y="-28" clip-path="url(#clipPath2)" stroke="none"/>
    </g>
    <g fill="url(#linearGradient1)" text-rendering="geometricPrecision" shape-rendering="geometricPrecision" transform="matrix(1,0,0,1,-42,28)" stroke="url(#linearGradient1)">
      <path d="M286 72 L498 72 Q518 112 498 152 L286 152 Q266 112 286 72 Z" stroke="none" clip-path="url(#clipPath2)"/>
    </g>
    <g text-rendering="geometricPrecision" stroke-miterlimit="1.45" stroke-width="3" shape-rendering="geometricPrecision" transform="matrix(1,0,0,1,-42,28)" stroke-linecap="butt">
      <path fill="none" d="M286 72 L498 72 Q518 112 498 152 L286 152 Q266 112 286 72 Z" clip-path="url(#clipPath2)"/>
      <path fill="none" d="M498 72 Q478 112 498 152" clip-path="url(#clipPath2)"/>
      <text x="319.291" font-size="24px" y="121.0703" clip-path="url(#clipPath2)" font-family="sans-serif" stroke="none" stroke-width="1" xml:space="preserve">OBSERVABLE</text>
    </g>
    <g text-rendering="geometricPrecision" shape-rendering="geometricPrecision" transform="matrix(1,0,0,1,-42,28)">
      <rect x="537" width="6" height="140" y="42" clip-path="url(#clipPath2)" stroke="none"/>
    </g>
    <g text-rendering="geometricPrecision" stroke-miterlimit="1.45" shape-rendering="geometricPrecision" transform="matrix(1,0,0,1,-42,28)" stroke-linecap="butt">
      <rect fill="none" x="537" width="6" height="140" y="42" clip-path="url(#clipPath2)"/>
    </g>
    <g fill="white" text-rendering="geometricPrecision" shape-rendering="geometricPrecision" transform="matrix(1,0,0,1,-42,28)" stroke="white">
      <path d="M166.4 72 L306 72 L285.6 152 L146 152 Z" stroke="none" clip-path="url(#clipPath2)"/>
    </g>
    <g text-rendering="geometricPrecision" stroke-miterlimit="1.45" stroke-width="3" shape-rendering="geometricPrecision" transform="matrix(1,0,0,1,-42,28)" stroke-linecap="butt">
      <path fill="none" d="M166.4 72 L306 72 L285.6 152 L146 152 Z" clip-path="url(#clipPath2)"/>
      <text x="192.8652" font-size="24px" y="121.0703" clip-path="url(#clipPath2)" font-family="sans-serif" stroke="none" stroke-width="1" xml:space="preserve">DATA</text>
    </g>
    <g fill="url(#linearGradient2)" text-rendering="geometricPrecision" shape-rendering="geometricPrecision" transform="matrix(1,0,0,1,-42,28)" stroke="url(#linearGradient2)">
      <path d="M117 17.5 C117 34.0685 103.5685 47.5 87 47.5 C70.4315 47.5 57 34.0685 57 17.5 C57 0.9315 70.4315 -12.5 87 -12.5 C103.5685 -12.5 117 0.9315 117 17.5 Z" stroke="none" clip-path="url(#clipPath2)"/>
    </g>
    <g stroke-linecap="butt" transform="matrix(1,0,0,1,-42,28)" fill="rgb(255,153,0)" text-rendering="geometricPrecision" shape-rendering="geometricPrecision" stroke="rgb(255,153,0)" stroke-width="2" stroke-miterlimit="1.45">
      <path fill="none" d="M117 17.5 C117 34.0685 103.5685 47.5 87 47.5 C70.4315 47.5 57 34.0685 57 17.5 C57 0.9315 70.4315 -12.5 87 -12.5 C103.5685 -12.5 117 0.9315 117 17.5 Z" clip-path="url(#clipPath2)"/>
      <path fill="url(#linearGradient3)" d="M109.593 17.5 C109.593 29.9778 99.4778 40.093 87 40.093 C74.5222 40.093 64.407 29.9778 64.407 17.5 C64.407 5.0222 74.5222 -5.093 87 -5.093 C99.4778 -5.093 109.593 5.0222 109.593 17.5 Z" clip-path="url(#clipPath2)" stroke="none"/>
    </g>
    <g text-rendering="geometricPrecision" shape-rendering="geometricPrecision" transform="matrix(1,0,0,1,-42,28)" stroke-linecap="round" stroke-linejoin="round">
      <path fill="none" d="M109.593 17.5 C109.593 29.9778 99.4778 40.093 87 40.093 C74.5222 40.093 64.407 29.9778 64.407 17.5 C64.407 5.0222 74.5222 -5.093 87 -5.093 C99.4778 -5.093 109.593 5.0222 109.593 17.5 Z" clip-path="url(#clipPath2)"/>
      <path fill="none" d="M106.3848 17.5 L109.4574 17.5 M103.7877 27.1924 L106.4487 28.7287 M96.6924 34.2877 L98.2287 36.9487 M87 36.8848 L87 39.9574 M77.3076 34.2877 L75.7713 36.9487 M70.2123 27.1924 L67.5513 28.7287 M67.6152 17.5 L64.5426 17.5 M70.2123 7.8076 L67.5513 6.2713 M77.3076 0.7123 L75.7713 -1.9487 M87 -1.8848 L87 -4.9574 M96.6924 0.7123 L98.2287 -1.9487 M103.7877 7.8076 L106.4487 6.2713 M90.7109 0.0416 L87 17.5 L100.0136 17.5" clip-path="url(#clipPath2)"/>
    </g>
    <g fill="rgb(153,204,0)" text-rendering="geometricPrecision" shape-rendering="geometricPrecision" transform="matrix(1,0,0,1,-42,28)" stroke="rgb(153,204,0)">
      <circle r="7.5" clip-path="url(#clipPath2)" cx="154.5" cy="17.5" stroke="none"/>
    </g>
    <g text-rendering="geometricPrecision" stroke-miterlimit="1.45" stroke-width="2" shape-rendering="geometricPrecision" transform="matrix(1,0,0,1,-42,28)" stroke-linecap="butt">
      <circle fill="none" r="7.5" clip-path="url(#clipPath2)" cx="154.5" cy="17.5"/>
    </g>
    <g fill="rgb(255,255,153)" text-rendering="geometricPrecision" shape-rendering="geometricPrecision" transform="matrix(1,0,0,1,-42,28)" stroke="rgb(255,255,153)">
      <circle r="7.5" clip-path="url(#clipPath2)" cx="181" cy="17.5" stroke="none"/>
    </g>
    <g text-rendering="geometricPrecision" stroke-miterlimit="1.45" stroke-width="2" shape-rendering="geometricPrecision" transform="matrix(1,0,0,1,-42,28)" stroke-linecap="butt">
      <circle fill="none" r="7.5" clip-path="url(#clipPath2)" cx="181" cy="17.5"/>
    </g>
    <g fill="rgb(204,153,255)" text-rendering="geometricPrecision" shape-rendering="geometricPrecision" transform="matrix(1,0,0,1,-42,28)" stroke="rgb(204,153,255)">
      <circle r="7.5" clip-path="url(#clipPath2)" cx="226" cy="17.5" stroke="none"/>
    </g>
    <g text-rendering="geometricPrecision" stroke-miterlimit="1.45" stroke-width="2" shape-rendering="geometricPrecision" transform="matrix(1,0,0,1,-42,28)" stroke-linecap="butt">
      <circle fill="none" r="7.5" clip-path="url(#clipPath2)" cx="226" cy="17.5"/>
    </g>
    <g fill="white" text-rendering="geometricPrecision" shape-rendering="geometricPrecision" transform="matrix(1,0,0,1,-42,28)" stroke="white">
      <rect x="775.01" y="72" clip-path="url(#clipPath2)" width="199" rx="4" ry="4" height="80" stroke="none"/>
    </g>
    <g text-rendering="geometricPrecision" stroke-miterlimit="1.45" stroke-width="3" shape-rendering="geometricPrecision" transform="matrix(1,0,0,1,-42,28)" stroke-linecap="butt">
      <rect x="775.01" y="72" clip-path="url(#clipPath2)" fill="none" width="199" rx="4" ry="4" height="80"/>
      <text x="815.7932" font-size="24px" y="121.0703" clip-path="url(#clipPath2)" font-family="sans-serif" stroke="none" stroke-width="1" xml:space="preserve">OBSERVER</text>
    </g>
    <g fill="rgb(204,153,255)" text-rendering="geometricPrecision" shape-rendering="geometricPrecision" transform="matrix(1,0,0,1,-42,28)" stroke="rgb(204,153,255)">
      <circle r="15" clip-path="url(#clipPath2)" cx="717" cy="137" stroke="none"/>
    </g>
    <g text-rendering="geometricPrecision" stroke-miterlimit="1.45" stroke-width="3" shape-rendering="geometricPrecision" transform="matrix(1,0,0,1,-42,28)" stroke-linecap="butt">
      <circle fill="none" r="15" clip-path="url(#clipPath2)" cx="717" cy="137"/>
    </g>
    <g fill="rgb(255,255,153)" text-rendering="geometricPrecision" shape-rendering="geometricPrecision" transform="matrix(1,0,0,1,-42,28)" stroke="rgb(255,255,153)">
      <circle r="15" clip-path="url(#clipPath2)" cx="635" cy="137" stroke="none"/>
    </g>
    <g text-rendering="geometricPrecision" stroke-miterlimit="1.45" stroke-width="3" shape-rendering="geometricPrecision" transform="matrix(1,0,0,1,-42,28)" stroke-linecap="butt">
      <circle fill="none" r="15" clip-path="url(#clipPath2)" cx="635" cy="137"/>
    </g>
    <g fill="rgb(153,204,0)" text-rendering="geometricPrecision" shape-rendering="geometricPrecision" transform="matrix(1,0,0,1,-42,28)" stroke="rgb(153,204,0)">
      <circle r="15" clip-path="url(#clipPath2)" cx="588" cy="137" stroke="none"/>
    </g>
    <g text-rendering="geometricPrecision" stroke-miterlimit="1.45" stroke-width="3" shape-rendering="geometricPrecision" transform="matrix(1,0,0,1,-42,28)" stroke-linecap="butt">
      <circle fill="none" r="15" clip-path="url(#clipPath2)" cx="588" cy="137"/>
      <path fill="none" d="M508.0225 112 L537 112" clip-path="url(#clipPath2)"/>
      <path fill="none" d="M117.0256 17.5 L147 17.5" stroke-width="2" clip-path="url(#clipPath2)"/>
      <path fill="none" d="M162 17.5 L173.5 17.5" stroke-width="2" clip-path="url(#clipPath2)"/>
      <path fill="none" d="M188.5 17.5 L218.5 17.5" stroke-width="2" clip-path="url(#clipPath2)"/>
      <path fill="none" d="M226 25 L226 72.0259" stroke-width="2" clip-path="url(#clipPath2)"/>
      <path fill="white" d="M0 0 L-16 -6 L-16 6 Z" stroke-width="2" clip-path="url(#clipPath3)" transform="matrix(0,1.125,-1.125,0,226,72.0259)" stroke="none"/>
      <path fill="none" d="M0 0 L-16 -6 L-16 6 Z" stroke-width="1" clip-path="url(#clipPath3)" transform="matrix(0,1.125,-1.125,0,226,72.0259)"/>
      <line transform="matrix(0,1.125,-1.125,0,226,72.0259)" clip-path="url(#clipPath3)" fill="none" x1="-21" x2="-21" y1="-8" y2="8" stroke-width="1"/>
    </g>
    <g stroke-linecap="butt" transform="matrix(1,0,0,1,-42,28)" text-rendering="geometricPrecision" shape-rendering="geometricPrecision" stroke-dasharray="18,6" stroke-width="3" stroke-miterlimit="1.45">
      <path fill="none" d="M775.0095 90.916 L548.0122 90.916" clip-path="url(#clipPath2)"/>
      <path d="M543.0122 90.916 L553.0122 98.416 L549.2622 90.916 L553.0122 83.416 Z" clip-path="url(#clipPath2)" stroke="none"/>
    </g>
    <g font-size="24px" stroke-linecap="butt" transform="matrix(1,0,0,1,-42,28)" text-rendering="geometricPrecision" font-family="sans-serif" shape-rendering="geometricPrecision" stroke-miterlimit="1.45">
      <text x="599.3078" xml:space="preserve" y="54.5386" clip-path="url(#clipPath2)" stroke="none">suscribe()</text>
      <path fill="none" d="M732 137 L775.0267 137" stroke-width="3" clip-path="url(#clipPath2)"/>
    </g>
    <g stroke-linecap="butt" transform="matrix(1.25,0,0,1.25,733.0267,165)" fill="white" text-rendering="geometricPrecision" shape-rendering="geometricPrecision" stroke="white" stroke-width="3" stroke-miterlimit="1.45">
      <path d="M0 0 L-16 -6 L-16 6 Z" stroke="none" clip-path="url(#clipPath4)"/>
      <path fill="none" d="M0 0 L-16 -6 L-16 6 Z" stroke-width="1" clip-path="url(#clipPath4)" stroke="black"/>
      <line clip-path="url(#clipPath4)" fill="none" x1="-21" x2="-21" y1="-8" y2="8" stroke="black" stroke-width="1"/>
    </g>
    <g text-rendering="geometricPrecision" stroke-miterlimit="1.45" stroke-width="3" shape-rendering="geometricPrecision" transform="matrix(1,0,0,1,-42,28)" stroke-linecap="butt">
      <path fill="none" d="M650 137 L702 137" clip-path="url(#clipPath2)"/>
      <path fill="none" d="M542.9531 138.877 L573.013 137.6245" clip-path="url(#clipPath2)"/>
      <path fill="none" d="M603 137 L620 137" clip-path="url(#clipPath2)"/>
    </g>
  </g>
</svg>
