<?xml version="1.0" encoding="UTF-8"?><svg xmlns="http://www.w3.org/2000/svg" xmlns:xlink="http://www.w3.org/1999/xlink" fill-opacity="1" color-rendering="auto" color-interpolation="auto" text-rendering="auto" stroke="black" stroke-linecap="square" width="948" stroke-miterlimit="10" shape-rendering="auto" stroke-opacity="1" fill="black" stroke-dasharray="none" font-weight="normal" stroke-width="1" height="390" font-family="'Dialog'" font-style="normal" stroke-linejoin="miter" font-size="12px" stroke-dashoffset="0" image-rendering="auto">
  <!--Generated by ySVG 2.5-->
  <defs id="genericDefs"/>
  <g>
    <defs id="defs1">
      <linearGradient x1="276" gradientUnits="userSpaceOnUse" x2="508" y1="72" y2="152" id="linearGradient1" spreadMethod="reflect">
        <stop stop-opacity="1" stop-color="white" offset="0%"/>
        <stop stop-opacity="1" stop-color="rgb(0,204,255)" offset="100%"/>
      </linearGradient>
      <linearGradient x1="57" gradientUnits="userSpaceOnUse" x2="117" y1="-12.5" y2="47.5" id="linearGradient2" spreadMethod="reflect">
        <stop stop-opacity="0.902" stop-color="rgb(255,255,255)" offset="0%"/>
        <stop stop-opacity="1" stop-color="white" offset="100%"/>
      </linearGradient>
      <linearGradient x1="57" gradientUnits="userSpaceOnUse" x2="117" y1="-12.5" y2="47.5" id="linearGradient3" spreadMethod="reflect">
        <stop stop-opacity="0.902" stop-color="rgb(255,255,255)" offset="0%"/>
        <stop stop-opacity="1" stop-color="white" offset="100%"/>
      </linearGradient>
      <linearGradient x1="276" gradientUnits="userSpaceOnUse" x2="508" y1="236.5" y2="316.5" id="linearGradient4" spreadMethod="reflect">
        <stop stop-opacity="1" stop-color="white" offset="0%"/>
        <stop stop-opacity="1" stop-color="rgb(0,204,255)" offset="100%"/>
      </linearGradient>
      <linearGradient x1="57" gradientUnits="userSpaceOnUse" x2="117" y1="152" y2="212" id="linearGradient5" spreadMethod="reflect">
        <stop stop-opacity="0.902" stop-color="rgb(255,255,255)" offset="0%"/>
        <stop stop-opacity="1" stop-color="white" offset="100%"/>
      </linearGradient>
      <linearGradient x1="57" gradientUnits="userSpaceOnUse" x2="117" y1="152" y2="212" id="linearGradient6" spreadMethod="reflect">
        <stop stop-opacity="0.902" stop-color="rgb(255,255,255)" offset="0%"/>
        <stop stop-opacity="1" stop-color="white" offset="100%"/>
      </linearGradient>
      <clipPath clipPathUnits="userSpaceOnUse" id="clipPath1">
        <path d="M0 0 L948 0 L948 390 L0 390 L0 0 Z"/>
      </clipPath>
      <clipPath clipPathUnits="userSpaceOnUse" id="clipPath2">
        <path d="M42 -28 L990 -28 L990 362 L42 362 L42 -28 Z"/>
      </clipPath>
      <clipPath clipPathUnits="userSpaceOnUse" id="clipPath3">
        <path d="M-88.9119 163.5556 L-88.9119 -679.1111 L257.7548 -679.1111 L257.7548 163.5556 L-88.9119 163.5556 Z"/>
      </clipPath>
      <clipPath clipPathUnits="userSpaceOnUse" id="clipPath4">
        <path d="M-586.3971 -133.6 L172.0029 -133.6 L172.0029 178.4 L-586.3971 178.4 L-586.3971 -133.6 Z"/>
      </clipPath>
      <clipPath clipPathUnits="userSpaceOnUse" id="clipPath5">
        <path d="M-235.1341 163.5556 L-235.1341 -679.1111 L111.5326 -679.1111 L111.5326 163.5556 L-235.1341 163.5556 Z"/>
      </clipPath>
      <clipPath clipPathUnits="userSpaceOnUse" id="clipPath6">
        <path d="M-586.3971 -265.2 L172.0029 -265.2 L172.0029 46.8 L-586.3971 46.8 L-586.3971 -265.2 Z"/>
      </clipPath>
    </defs>
    <g fill="white" text-rendering="geometricPrecision" shape-rendering="geometricPrecision" transform="translate(-42,28)" stroke="white">
      <rect x="42" width="948" height="390" y="-28" clip-path="url(#clipPath2)" stroke="none"/>
    </g>
    <g fill="url(#linearGradient1)" text-rendering="geometricPrecision" shape-rendering="geometricPrecision" transform="matrix(1,0,0,1,-42,28)" stroke="url(#linearGradient1)">
      <path d="M286 72 L498 72 Q518 112 498 152 L286 152 Q266 112 286 72 Z" stroke="none" clip-path="url(#clipPath2)"/>
    </g>
    <g text-rendering="geometricPrecision" stroke-miterlimit="1.45" stroke-width="3" shape-rendering="geometricPrecision" transform="matrix(1,0,0,1,-42,28)" stroke-linecap="butt">
      <path fill="none" d="M286 72 L498 72 Q518 112 498 152 L286 152 Q266 112 286 72 Z" clip-path="url(#clipPath2)"/>
      <path fill="none" d="M498 72 Q478 112 498 152" clip-path="url(#clipPath2)"/>
      <text x="319.291" font-size="24px" y="121.0703" clip-path="url(#clipPath2)" font-family="sans-serif" stroke="none" stroke-width="1" xml:space="preserve">OBSERVABLE</text>
    </g>
    <g text-rendering="geometricPrecision" shape-rendering="geometricPrecision" transform="matrix(1,0,0,1,-42,28)">
      <rect x="537" width="6" height="140" y="42" clip-path="url(#clipPath2)" stroke="none"/>
    </g>
    <g text-rendering="geometricPrecision" stroke-miterlimit="1.45" shape-rendering="geometricPrecision" transform="matrix(1,0,0,1,-42,28)" stroke-linecap="butt">
      <rect fill="none" x="537" width="6" height="140" y="42" clip-path="url(#clipPath2)"/>
    </g>
    <g fill="white" text-rendering="geometricPrecision" shape-rendering="geometricPrecision" transform="matrix(1,0,0,1,-42,28)" stroke="white">
      <path d="M166.4 72 L306 72 L285.6 152 L146 152 Z" stroke="none" clip-path="url(#clipPath2)"/>
    </g>
    <g text-rendering="geometricPrecision" stroke-miterlimit="1.45" stroke-width="3" shape-rendering="geometricPrecision" transform="matrix(1,0,0,1,-42,28)" stroke-linecap="butt">
      <path fill="none" d="M166.4 72 L306 72 L285.6 152 L146 152 Z" clip-path="url(#clipPath2)"/>
      <text x="192.8652" font-size="24px" y="121.0703" clip-path="url(#clipPath2)" font-family="sans-serif" stroke="none" stroke-width="1" xml:space="preserve">DATA</text>
    </g>
    <g fill="url(#linearGradient2)" text-rendering="geometricPrecision" shape-rendering="geometricPrecision" transform="matrix(1,0,0,1,-42,28)" stroke="url(#linearGradient2)">
      <path d="M117 17.5 C117 34.0685 103.5685 47.5 87 47.5 C70.4315 47.5 57 34.0685 57 17.5 C57 0.9315 70.4315 -12.5 87 -12.5 C103.5685 -12.5 117 0.9315 117 17.5 Z" stroke="none" clip-path="url(#clipPath2)"/>
    </g>
    <g stroke-linecap="butt" transform="matrix(1,0,0,1,-42,28)" fill="rgb(255,153,0)" text-rendering="geometricPrecision" shape-rendering="geometricPrecision" stroke="rgb(255,153,0)" stroke-width="2" stroke-miterlimit="1.45">
      <path fill="none" d="M117 17.5 C117 34.0685 103.5685 47.5 87 47.5 C70.4315 47.5 57 34.0685 57 17.5 C57 0.9315 70.4315 -12.5 87 -12.5 C103.5685 -12.5 117 0.9315 117 17.5 Z" clip-path="url(#clipPath2)"/>
      <path fill="url(#linearGradient3)" d="M109.593 17.5 C109.593 29.9778 99.4778 40.093 87 40.093 C74.5222 40.093 64.407 29.9778 64.407 17.5 C64.407 5.0222 74.5222 -5.093 87 -5.093 C99.4778 -5.093 109.593 5.0222 109.593 17.5 Z" clip-path="url(#clipPath2)" stroke="none"/>
    </g>
    <g text-rendering="geometricPrecision" shape-rendering="geometricPrecision" transform="matrix(1,0,0,1,-42,28)" stroke-linecap="round" stroke-linejoin="round">
      <path fill="none" d="M109.593 17.5 C109.593 29.9778 99.4778 40.093 87 40.093 C74.5222 40.093 64.407 29.9778 64.407 17.5 C64.407 5.0222 74.5222 -5.093 87 -5.093 C99.4778 -5.093 109.593 5.0222 109.593 17.5 Z" clip-path="url(#clipPath2)"/>
      <path fill="none" d="M106.3848 17.5 L109.4574 17.5 M103.7877 27.1924 L106.4487 28.7287 M96.6924 34.2877 L98.2287 36.9487 M87 36.8848 L87 39.9574 M77.3076 34.2877 L75.7713 36.9487 M70.2123 27.1924 L67.5513 28.7287 M67.6152 17.5 L64.5426 17.5 M70.2123 7.8076 L67.5513 6.2713 M77.3076 0.7123 L75.7713 -1.9487 M87 -1.8848 L87 -4.9574 M96.6924 0.7123 L98.2287 -1.9487 M103.7877 7.8076 L106.4487 6.2713 M90.7109 0.0416 L87 17.5 L100.0136 17.5" clip-path="url(#clipPath2)"/>
    </g>
    <g fill="rgb(153,204,0)" text-rendering="geometricPrecision" shape-rendering="geometricPrecision" transform="matrix(1,0,0,1,-42,28)" stroke="rgb(153,204,0)">
      <circle r="7.5" clip-path="url(#clipPath2)" cx="154.5" cy="17.5" stroke="none"/>
    </g>
    <g text-rendering="geometricPrecision" stroke-miterlimit="1.45" stroke-width="2" shape-rendering="geometricPrecision" transform="matrix(1,0,0,1,-42,28)" stroke-linecap="butt">
      <circle fill="none" r="7.5" clip-path="url(#clipPath2)" cx="154.5" cy="17.5"/>
    </g>
    <g fill="rgb(255,255,153)" text-rendering="geometricPrecision" shape-rendering="geometricPrecision" transform="matrix(1,0,0,1,-42,28)" stroke="rgb(255,255,153)">
      <circle r="7.5" clip-path="url(#clipPath2)" cx="181" cy="17.5" stroke="none"/>
    </g>
    <g text-rendering="geometricPrecision" stroke-miterlimit="1.45" stroke-width="2" shape-rendering="geometricPrecision" transform="matrix(1,0,0,1,-42,28)" stroke-linecap="butt">
      <circle fill="none" r="7.5" clip-path="url(#clipPath2)" cx="181" cy="17.5"/>
    </g>
    <g fill="rgb(204,153,255)" text-rendering="geometricPrecision" shape-rendering="geometricPrecision" transform="matrix(1,0,0,1,-42,28)" stroke="rgb(204,153,255)">
      <circle r="7.5" clip-path="url(#clipPath2)" cx="226" cy="17.5" stroke="none"/>
    </g>
    <g text-rendering="geometricPrecision" stroke-miterlimit="1.45" stroke-width="2" shape-rendering="geometricPrecision" transform="matrix(1,0,0,1,-42,28)" stroke-linecap="butt">
      <circle fill="none" r="7.5" clip-path="url(#clipPath2)" cx="226" cy="17.5"/>
    </g>
    <g fill="white" text-rendering="geometricPrecision" shape-rendering="geometricPrecision" transform="matrix(1,0,0,1,-42,28)" stroke="white">
      <rect x="775.01" y="72" clip-path="url(#clipPath2)" width="199" rx="4" ry="4" height="80" stroke="none"/>
    </g>
    <g text-rendering="geometricPrecision" stroke-miterlimit="1.45" stroke-width="3" shape-rendering="geometricPrecision" transform="matrix(1,0,0,1,-42,28)" stroke-linecap="butt">
      <rect x="775.01" y="72" clip-path="url(#clipPath2)" fill="none" width="199" rx="4" ry="4" height="80"/>
      <text x="815.7932" font-size="24px" y="121.0703" clip-path="url(#clipPath2)" font-family="sans-serif" stroke="none" stroke-width="1" xml:space="preserve">OBSERVER</text>
    </g>
    <g fill="rgb(204,153,255)" text-rendering="geometricPrecision" shape-rendering="geometricPrecision" transform="matrix(1,0,0,1,-42,28)" stroke="rgb(204,153,255)">
      <circle r="15" clip-path="url(#clipPath2)" cx="717" cy="139" stroke="none"/>
    </g>
    <g text-rendering="geometricPrecision" stroke-miterlimit="1.45" stroke-width="3" shape-rendering="geometricPrecision" transform="matrix(1,0,0,1,-42,28)" stroke-linecap="butt">
      <circle fill="none" r="15" clip-path="url(#clipPath2)" cx="717" cy="139"/>
    </g>
    <g fill="rgb(255,255,153)" text-rendering="geometricPrecision" shape-rendering="geometricPrecision" transform="matrix(1,0,0,1,-42,28)" stroke="rgb(255,255,153)">
      <circle r="15" clip-path="url(#clipPath2)" cx="635" cy="139" stroke="none"/>
    </g>
    <g text-rendering="geometricPrecision" stroke-miterlimit="1.45" stroke-width="3" shape-rendering="geometricPrecision" transform="matrix(1,0,0,1,-42,28)" stroke-linecap="butt">
      <circle fill="none" r="15" clip-path="url(#clipPath2)" cx="635" cy="139"/>
    </g>
    <g fill="rgb(153,204,0)" text-rendering="geometricPrecision" shape-rendering="geometricPrecision" transform="matrix(1,0,0,1,-42,28)" stroke="rgb(153,204,0)">
      <circle r="15" clip-path="url(#clipPath2)" cx="588" cy="139" stroke="none"/>
    </g>
    <g text-rendering="geometricPrecision" stroke-miterlimit="1.45" stroke-width="3" shape-rendering="geometricPrecision" transform="matrix(1,0,0,1,-42,28)" stroke-linecap="butt">
      <circle fill="none" r="15" clip-path="url(#clipPath2)" cx="588" cy="139"/>
    </g>
    <g fill="url(#linearGradient4)" text-rendering="geometricPrecision" shape-rendering="geometricPrecision" transform="matrix(1,0,0,1,-42,28)" stroke="url(#linearGradient4)">
      <path d="M286 236.5 L498 236.5 Q518 276.5 498 316.5 L286 316.5 Q266 276.5 286 236.5 Z" stroke="none" clip-path="url(#clipPath2)"/>
    </g>
    <g text-rendering="geometricPrecision" stroke-miterlimit="1.45" stroke-width="3" shape-rendering="geometricPrecision" transform="matrix(1,0,0,1,-42,28)" stroke-linecap="butt">
      <path fill="none" d="M286 236.5 L498 236.5 Q518 276.5 498 316.5 L286 316.5 Q266 276.5 286 236.5 Z" clip-path="url(#clipPath2)"/>
      <path fill="none" d="M498 236.5 Q478 276.5 498 316.5" clip-path="url(#clipPath2)"/>
      <text x="319.291" font-size="24px" y="285.5703" clip-path="url(#clipPath2)" font-family="sans-serif" stroke="none" stroke-width="1" xml:space="preserve">OBSERVABLE</text>
    </g>
    <g text-rendering="geometricPrecision" shape-rendering="geometricPrecision" transform="matrix(1,0,0,1,-42,28)">
      <rect x="537" width="6" height="140" y="206.5" clip-path="url(#clipPath2)" stroke="none"/>
      <rect stroke-linecap="butt" x="537" y="206.5" clip-path="url(#clipPath2)" fill="none" width="6" height="140" stroke-miterlimit="1.45"/>
    </g>
    <g fill="white" text-rendering="geometricPrecision" shape-rendering="geometricPrecision" transform="matrix(1,0,0,1,-42,28)" stroke="white">
      <path d="M166.4 236.5 L306 236.5 L285.6 316.5 L146 316.5 Z" stroke="none" clip-path="url(#clipPath2)"/>
    </g>
    <g text-rendering="geometricPrecision" stroke-miterlimit="1.45" stroke-width="3" shape-rendering="geometricPrecision" transform="matrix(1,0,0,1,-42,28)" stroke-linecap="butt">
      <path fill="none" d="M166.4 236.5 L306 236.5 L285.6 316.5 L146 316.5 Z" clip-path="url(#clipPath2)"/>
      <text x="192.8652" font-size="24px" y="285.5703" clip-path="url(#clipPath2)" font-family="sans-serif" stroke="none" stroke-width="1" xml:space="preserve">DATA</text>
    </g>
    <g fill="url(#linearGradient5)" text-rendering="geometricPrecision" shape-rendering="geometricPrecision" transform="matrix(1,0,0,1,-42,28)" stroke="url(#linearGradient5)">
      <path d="M117 182 C117 198.5685 103.5685 212 87 212 C70.4315 212 57 198.5685 57 182 C57 165.4315 70.4315 152 87 152 C103.5685 152 117 165.4315 117 182 Z" stroke="none" clip-path="url(#clipPath2)"/>
    </g>
    <g stroke-linecap="butt" transform="matrix(1,0,0,1,-42,28)" fill="rgb(255,153,0)" text-rendering="geometricPrecision" shape-rendering="geometricPrecision" stroke="rgb(255,153,0)" stroke-width="2" stroke-miterlimit="1.45">
      <path fill="none" d="M117 182 C117 198.5685 103.5685 212 87 212 C70.4315 212 57 198.5685 57 182 C57 165.4315 70.4315 152 87 152 C103.5685 152 117 165.4315 117 182 Z" clip-path="url(#clipPath2)"/>
      <path fill="url(#linearGradient6)" d="M109.593 182 C109.593 194.4778 99.4778 204.593 87 204.593 C74.5222 204.593 64.407 194.4778 64.407 182 C64.407 169.5222 74.5222 159.407 87 159.407 C99.4778 159.407 109.593 169.5222 109.593 182 Z" clip-path="url(#clipPath2)" stroke="none"/>
    </g>
    <g text-rendering="geometricPrecision" shape-rendering="geometricPrecision" transform="matrix(1,0,0,1,-42,28)" stroke-linecap="round" stroke-linejoin="round">
      <path fill="none" d="M109.593 182 C109.593 194.4778 99.4778 204.593 87 204.593 C74.5222 204.593 64.407 194.4778 64.407 182 C64.407 169.5222 74.5222 159.407 87 159.407 C99.4778 159.407 109.593 169.5222 109.593 182 Z" clip-path="url(#clipPath2)"/>
      <path fill="none" d="M106.3848 182 L109.4574 182 M103.7877 191.6924 L106.4487 193.2287 M96.6924 198.7877 L98.2287 201.4487 M87 201.3848 L87 204.4574 M77.3076 198.7877 L75.7713 201.4487 M70.2123 191.6924 L67.5513 193.2287 M67.6152 182 L64.5426 182 M70.2123 172.3076 L67.5513 170.7713 M77.3076 165.2123 L75.7713 162.5513 M87 162.6152 L87 159.5426 M96.6924 165.2123 L98.2287 162.5513 M103.7877 172.3076 L106.4487 170.7713 M90.7109 164.5416 L87 182 L100.0136 182" clip-path="url(#clipPath2)"/>
    </g>
    <g fill="rgb(255,204,153)" text-rendering="geometricPrecision" shape-rendering="geometricPrecision" transform="matrix(1,0,0,1,-42,28)" stroke="rgb(255,204,153)">
      <circle r="7.5" clip-path="url(#clipPath2)" cx="154.5" cy="182" stroke="none"/>
    </g>
    <g text-rendering="geometricPrecision" stroke-miterlimit="1.45" stroke-width="2" shape-rendering="geometricPrecision" transform="matrix(1,0,0,1,-42,28)" stroke-linecap="butt">
      <circle fill="none" r="7.5" clip-path="url(#clipPath2)" cx="154.5" cy="182"/>
    </g>
    <g fill="rgb(153,204,255)" text-rendering="geometricPrecision" shape-rendering="geometricPrecision" transform="matrix(1,0,0,1,-42,28)" stroke="rgb(153,204,255)">
      <circle r="7.5" clip-path="url(#clipPath2)" cx="181" cy="182" stroke="none"/>
    </g>
    <g text-rendering="geometricPrecision" stroke-miterlimit="1.45" stroke-width="2" shape-rendering="geometricPrecision" transform="matrix(1,0,0,1,-42,28)" stroke-linecap="butt">
      <circle fill="none" r="7.5" clip-path="url(#clipPath2)" cx="181" cy="182"/>
    </g>
    <g fill="rgb(255,204,0)" text-rendering="geometricPrecision" shape-rendering="geometricPrecision" transform="matrix(1,0,0,1,-42,28)" stroke="rgb(255,204,0)">
      <circle r="7.5" clip-path="url(#clipPath2)" cx="226" cy="182" stroke="none"/>
    </g>
    <g text-rendering="geometricPrecision" stroke-miterlimit="1.45" stroke-width="2" shape-rendering="geometricPrecision" transform="matrix(1,0,0,1,-42,28)" stroke-linecap="butt">
      <circle fill="none" r="7.5" clip-path="url(#clipPath2)" cx="226" cy="182"/>
    </g>
    <g fill="white" text-rendering="geometricPrecision" shape-rendering="geometricPrecision" transform="matrix(1,0,0,1,-42,28)" stroke="white">
      <rect x="775.01" y="236.5" clip-path="url(#clipPath2)" width="199" rx="4" ry="4" height="80" stroke="none"/>
    </g>
    <g text-rendering="geometricPrecision" stroke-miterlimit="1.45" stroke-width="3" shape-rendering="geometricPrecision" transform="matrix(1,0,0,1,-42,28)" stroke-linecap="butt">
      <rect x="775.01" y="236.5" clip-path="url(#clipPath2)" fill="none" width="199" rx="4" ry="4" height="80"/>
      <text x="815.7932" font-size="24px" y="285.5703" clip-path="url(#clipPath2)" font-family="sans-serif" stroke="none" stroke-width="1" xml:space="preserve">OBSERVER</text>
    </g>
    <g fill="rgb(255,204,0)" text-rendering="geometricPrecision" shape-rendering="geometricPrecision" transform="matrix(1,0,0,1,-42,28)" stroke="rgb(255,204,0)">
      <circle r="15" clip-path="url(#clipPath2)" cx="717" cy="303.5" stroke="none"/>
    </g>
    <g text-rendering="geometricPrecision" stroke-miterlimit="1.45" stroke-width="3" shape-rendering="geometricPrecision" transform="matrix(1,0,0,1,-42,28)" stroke-linecap="butt">
      <circle fill="none" r="15" clip-path="url(#clipPath2)" cx="717" cy="303.5"/>
    </g>
    <g fill="rgb(153,204,255)" text-rendering="geometricPrecision" shape-rendering="geometricPrecision" transform="matrix(1,0,0,1,-42,28)" stroke="rgb(153,204,255)">
      <circle r="15" clip-path="url(#clipPath2)" cx="635" cy="303.5" stroke="none"/>
    </g>
    <g text-rendering="geometricPrecision" stroke-miterlimit="1.45" stroke-width="3" shape-rendering="geometricPrecision" transform="matrix(1,0,0,1,-42,28)" stroke-linecap="butt">
      <circle fill="none" r="15" clip-path="url(#clipPath2)" cx="635" cy="303.5"/>
    </g>
    <g fill="rgb(255,204,153)" text-rendering="geometricPrecision" shape-rendering="geometricPrecision" transform="matrix(1,0,0,1,-42,28)" stroke="rgb(255,204,153)">
      <circle r="15" clip-path="url(#clipPath2)" cx="588" cy="303.5" stroke="none"/>
    </g>
    <g text-rendering="geometricPrecision" stroke-miterlimit="1.45" stroke-width="3" shape-rendering="geometricPrecision" transform="matrix(1,0,0,1,-42,28)" stroke-linecap="butt">
      <circle fill="none" r="15" clip-path="url(#clipPath2)" cx="588" cy="303.5"/>
      <path fill="none" d="M508.0225 112 L537 112" clip-path="url(#clipPath2)"/>
      <path fill="none" d="M117.0256 17.5 L147 17.5" stroke-width="2" clip-path="url(#clipPath2)"/>
      <path fill="none" d="M162 17.5 L173.5 17.5" stroke-width="2" clip-path="url(#clipPath2)"/>
      <path fill="none" d="M188.5 17.5 L218.5 17.5" stroke-width="2" clip-path="url(#clipPath2)"/>
      <path fill="none" d="M226 25 L226 72.0259" stroke-width="2" clip-path="url(#clipPath2)"/>
      <path fill="white" d="M0 0 L-16 -6 L-16 6 Z" stroke-width="2" clip-path="url(#clipPath3)" transform="matrix(0,1.125,-1.125,0,226,72.0259)" stroke="none"/>
      <path fill="none" d="M0 0 L-16 -6 L-16 6 Z" stroke-width="1" clip-path="url(#clipPath3)" transform="matrix(0,1.125,-1.125,0,226,72.0259)"/>
      <line transform="matrix(0,1.125,-1.125,0,226,72.0259)" clip-path="url(#clipPath3)" fill="none" x1="-21" x2="-21" y1="-8" y2="8" stroke-width="1"/>
    </g>
    <g stroke-linecap="butt" transform="matrix(1,0,0,1,-42,28)" text-rendering="geometricPrecision" shape-rendering="geometricPrecision" stroke-dasharray="18,6" stroke-width="3" stroke-miterlimit="1.45">
      <path fill="none" d="M775.0095 90.916 L548.0122 90.916" clip-path="url(#clipPath2)"/>
      <path d="M543.0122 90.916 L553.0122 98.416 L549.2622 90.916 L553.0122 83.416 Z" clip-path="url(#clipPath2)" stroke="none"/>
      <path fill="none" stroke-dasharray="none" d="M732 139 L774.9963 139" clip-path="url(#clipPath2)"/>
      <path fill="white" stroke-dasharray="none" d="M0 0 L-16 -6 L-16 6 Z" clip-path="url(#clipPath4)" transform="matrix(1.25,0,0,1.25,774.9963,139)" stroke="none"/>
      <path fill="none" stroke-dasharray="none" d="M0 0 L-16 -6 L-16 6 Z" stroke-width="1" clip-path="url(#clipPath4)" transform="matrix(1.25,0,0,1.25,774.9963,139)"/>
      <line transform="matrix(1.25,0,0,1.25,774.9963,139)" clip-path="url(#clipPath4)" fill="none" x1="-21" x2="-21" y1="-8" y2="8" stroke-dasharray="none" stroke-width="1"/>
    </g>
    <g text-rendering="geometricPrecision" stroke-miterlimit="1.45" stroke-width="3" shape-rendering="geometricPrecision" transform="matrix(1,0,0,1,-42,28)" stroke-linecap="butt">
      <path fill="none" d="M650 139 L702 139" clip-path="url(#clipPath2)"/>
      <path fill="none" d="M542.9531 139 L573 139" clip-path="url(#clipPath2)"/>
      <path fill="none" d="M603 139 L620 139" clip-path="url(#clipPath2)"/>
      <path fill="none" d="M508.0225 276.5 L537 276.5" clip-path="url(#clipPath2)"/>
      <path fill="none" d="M117.0256 182 L147 182" stroke-width="2" clip-path="url(#clipPath2)"/>
      <path fill="none" d="M162 182 L173.5 182" stroke-width="2" clip-path="url(#clipPath2)"/>
      <path fill="none" d="M188.5 182 L218.5 182" stroke-width="2" clip-path="url(#clipPath2)"/>
      <path fill="none" d="M226 189.5 L226 236.5259" stroke-width="2" clip-path="url(#clipPath2)"/>
      <path fill="white" d="M0 0 L-16 -6 L-16 6 Z" stroke-width="2" clip-path="url(#clipPath5)" transform="matrix(0,1.125,-1.125,0,226,236.5259)" stroke="none"/>
      <path fill="none" d="M0 0 L-16 -6 L-16 6 Z" stroke-width="1" clip-path="url(#clipPath5)" transform="matrix(0,1.125,-1.125,0,226,236.5259)"/>
      <line transform="matrix(0,1.125,-1.125,0,226,236.5259)" clip-path="url(#clipPath5)" fill="none" x1="-21" x2="-21" y1="-8" y2="8" stroke-width="1"/>
    </g>
    <g stroke-linecap="butt" transform="matrix(1,0,0,1,-42,28)" text-rendering="geometricPrecision" shape-rendering="geometricPrecision" stroke-dasharray="18,6" stroke-width="3" stroke-miterlimit="1.45">
      <path fill="none" d="M775.0095 255.416 L548.0122 255.416" clip-path="url(#clipPath2)"/>
      <path d="M543.0122 255.416 L553.0122 262.916 L549.2622 255.416 L553.0122 247.916 Z" clip-path="url(#clipPath2)" stroke="none"/>
      <path fill="none" stroke-dasharray="none" d="M732 303.5 L774.9963 303.5" clip-path="url(#clipPath2)"/>
      <path fill="white" stroke-dasharray="none" d="M0 0 L-16 -6 L-16 6 Z" clip-path="url(#clipPath6)" transform="matrix(1.25,0,0,1.25,774.9963,303.5)" stroke="none"/>
      <path fill="none" stroke-dasharray="none" d="M0 0 L-16 -6 L-16 6 Z" stroke-width="1" clip-path="url(#clipPath6)" transform="matrix(1.25,0,0,1.25,774.9963,303.5)"/>
      <line transform="matrix(1.25,0,0,1.25,774.9963,303.5)" clip-path="url(#clipPath6)" fill="none" x1="-21" x2="-21" y1="-8" y2="8" stroke-dasharray="none" stroke-width="1"/>
    </g>
    <g text-rendering="geometricPrecision" stroke-miterlimit="1.45" stroke-width="3" shape-rendering="geometricPrecision" transform="matrix(1,0,0,1,-42,28)" stroke-linecap="butt">
      <path fill="none" d="M650 303.5 L702 303.5" clip-path="url(#clipPath2)"/>
      <path fill="none" d="M542.9531 303.5 L573 303.5" clip-path="url(#clipPath2)"/>
      <path fill="none" d="M603 303.5 L620 303.5" clip-path="url(#clipPath2)"/>
    </g>
  </g>
</svg>
