<?xml version="1.0" encoding="UTF-8"?><svg xmlns="http://www.w3.org/2000/svg" xmlns:xlink="http://www.w3.org/1999/xlink" fill-opacity="1" color-rendering="auto" color-interpolation="auto" text-rendering="auto" stroke="black" stroke-linecap="square" width="691" stroke-miterlimit="10" shape-rendering="auto" stroke-opacity="1" fill="black" stroke-dasharray="none" font-weight="normal" stroke-width="1" height="278" font-family="'Dialog'" font-style="normal" stroke-linejoin="miter" font-size="12px" stroke-dashoffset="0" image-rendering="auto">
  <!--Generated by ySVG 2.5-->
  <defs id="genericDefs"/>
  <g>
    <defs id="defs1">
      <linearGradient x1="362.5" gradientUnits="userSpaceOnUse" x2="422.5" y1="325.0581" y2="385.0581" id="linearGradient1" spreadMethod="reflect">
        <stop stop-opacity="0.902" stop-color="rgb(255,255,255)" offset="0%"/>
        <stop stop-opacity="1" stop-color="white" offset="100%"/>
      </linearGradient>
      <linearGradient x1="362.5" gradientUnits="userSpaceOnUse" x2="422.5" y1="325.0581" y2="385.0581" id="linearGradient2" spreadMethod="reflect">
        <stop stop-opacity="0.902" stop-color="rgb(255,255,255)" offset="0%"/>
        <stop stop-opacity="1" stop-color="white" offset="100%"/>
      </linearGradient>
      <clipPath clipPathUnits="userSpaceOnUse" id="clipPath1">
        <path d="M0 0 L691 0 L691 278 L0 278 L0 0 Z"/>
      </clipPath>
      <clipPath clipPathUnits="userSpaceOnUse" id="clipPath2">
        <path d="M121 218 L812 218 L812 496 L121 496 L121 218 Z"/>
      </clipPath>
      <clipPath clipPathUnits="userSpaceOnUse" id="clipPath3">
        <path d="M-311.7558 -121.8294 L302.4664 -121.8294 L302.4664 125.2817 L-311.7558 125.2817 L-311.7558 -121.8294 Z"/>
      </clipPath>
      <clipPath clipPathUnits="userSpaceOnUse" id="clipPath4">
        <path d="M-430.3055 -58.7699 L183.8428 -68.2974 L187.6758 178.784 L-426.4725 188.3115 L-430.3055 -58.7699 Z"/>
      </clipPath>
      <clipPath clipPathUnits="userSpaceOnUse" id="clipPath5">
        <path d="M-429.3423 -178.451 L184.8799 -178.451 L184.8799 68.6602 L-429.3423 68.6602 L-429.3423 -178.451 Z"/>
      </clipPath>
    </defs>
    <g fill="white" text-rendering="geometricPrecision" shape-rendering="geometricPrecision" transform="translate(-121,-218)" stroke="white">
      <rect x="121" width="691" height="278" y="218" clip-path="url(#clipPath2)" stroke="none"/>
    </g>
    <g text-rendering="geometricPrecision" shape-rendering="geometricPrecision" transform="matrix(1,0,0,1,-121,-218)">
      <rect x="471.76" width="6" height="225.9169" y="233.1992" clip-path="url(#clipPath2)" stroke="none"/>
      <rect stroke-linecap="butt" x="471.76" y="233.1992" clip-path="url(#clipPath2)" fill="none" width="6" height="225.9169" stroke-miterlimit="1.45"/>
    </g>
    <g fill="white" text-rendering="geometricPrecision" shape-rendering="geometricPrecision" transform="matrix(1,0,0,1,-121,-218)" stroke="white">
      <path d="M157.0631 315.0581 L296.6631 315.0581 L276.2631 395.0581 L136.6631 395.0581 Z" stroke="none" clip-path="url(#clipPath2)"/>
    </g>
    <g text-rendering="geometricPrecision" stroke-miterlimit="1.45" stroke-width="3" shape-rendering="geometricPrecision" transform="matrix(1,0,0,1,-121,-218)" stroke-linecap="butt">
      <path fill="none" d="M157.0631 315.0581 L296.6631 315.0581 L276.2631 395.0581 L136.6631 395.0581 Z" clip-path="url(#clipPath2)"/>
      <text x="183.5283" font-size="24px" y="364.1284" clip-path="url(#clipPath2)" font-family="sans-serif" stroke="none" stroke-width="1" xml:space="preserve">DATA</text>
    </g>
    <g fill="url(#linearGradient1)" text-rendering="geometricPrecision" shape-rendering="geometricPrecision" transform="matrix(1,0,0,1,-121,-218)" stroke="url(#linearGradient1)">
      <path d="M422.5 355.0581 C422.5 371.6266 409.0685 385.0581 392.5 385.0581 C375.9315 385.0581 362.5 371.6266 362.5 355.0581 C362.5 338.4896 375.9315 325.0581 392.5 325.0581 C409.0685 325.0581 422.5 338.4896 422.5 355.0581 Z" stroke="none" clip-path="url(#clipPath2)"/>
    </g>
    <g stroke-linecap="butt" transform="matrix(1,0,0,1,-121,-218)" fill="rgb(255,153,0)" text-rendering="geometricPrecision" shape-rendering="geometricPrecision" stroke="rgb(255,153,0)" stroke-width="2" stroke-miterlimit="1.45">
      <path fill="none" d="M422.5 355.0581 C422.5 371.6266 409.0685 385.0581 392.5 385.0581 C375.9315 385.0581 362.5 371.6266 362.5 355.0581 C362.5 338.4896 375.9315 325.0581 392.5 325.0581 C409.0685 325.0581 422.5 338.4896 422.5 355.0581 Z" clip-path="url(#clipPath2)"/>
      <path fill="url(#linearGradient2)" d="M415.093 355.0581 C415.093 367.5359 404.9778 377.6511 392.5 377.6511 C380.0222 377.6511 369.907 367.5359 369.907 355.0581 C369.907 342.5803 380.0222 332.4651 392.5 332.4651 C404.9778 332.4651 415.093 342.5803 415.093 355.0581 Z" clip-path="url(#clipPath2)" stroke="none"/>
    </g>
    <g text-rendering="geometricPrecision" shape-rendering="geometricPrecision" transform="matrix(1,0,0,1,-121,-218)" stroke-linecap="round" stroke-linejoin="round">
      <path fill="none" d="M415.093 355.0581 C415.093 367.5359 404.9778 377.6511 392.5 377.6511 C380.0222 377.6511 369.907 367.5359 369.907 355.0581 C369.907 342.5803 380.0222 332.4651 392.5 332.4651 C404.9778 332.4651 415.093 342.5803 415.093 355.0581 Z" clip-path="url(#clipPath2)"/>
      <path fill="none" d="M411.8848 355.0581 L414.9574 355.0581 M409.2877 364.7505 L411.9487 366.2868 M402.1924 371.8458 L403.7287 374.5068 M392.5 374.4429 L392.5 377.5155 M382.8076 371.8458 L381.2713 374.5068 M375.7123 364.7505 L373.0513 366.2868 M373.1152 355.0581 L370.0426 355.0581 M375.7123 345.3657 L373.0513 343.8294 M382.8076 338.2704 L381.2713 335.6094 M392.5 335.6733 L392.5 332.6006 M402.1924 338.2704 L403.7287 335.6094 M409.2877 345.3657 L411.9487 343.8294 M396.2109 337.5997 L392.5 355.0581 L405.5136 355.0581" clip-path="url(#clipPath2)"/>
    </g>
    <g fill="rgb(153,204,0)" text-rendering="geometricPrecision" shape-rendering="geometricPrecision" transform="matrix(1,0,0,1,-121,-218)" stroke="rgb(153,204,0)">
      <circle r="7.5" clip-path="url(#clipPath2)" cx="188.9516" cy="272.0996" stroke="none"/>
    </g>
    <g text-rendering="geometricPrecision" stroke-miterlimit="1.45" stroke-width="2" shape-rendering="geometricPrecision" transform="matrix(1,0,0,1,-121,-218)" stroke-linecap="butt">
      <circle fill="none" r="7.5" clip-path="url(#clipPath2)" cx="188.9516" cy="272.0996"/>
    </g>
    <g fill="rgb(255,255,153)" text-rendering="geometricPrecision" shape-rendering="geometricPrecision" transform="matrix(1,0,0,1,-121,-218)" stroke="rgb(255,255,153)">
      <circle r="7.5" clip-path="url(#clipPath2)" cx="219.74" cy="272.0996" stroke="none"/>
    </g>
    <g text-rendering="geometricPrecision" stroke-miterlimit="1.45" stroke-width="2" shape-rendering="geometricPrecision" transform="matrix(1,0,0,1,-121,-218)" stroke-linecap="butt">
      <circle fill="none" r="7.5" clip-path="url(#clipPath2)" cx="219.74" cy="272.0996"/>
    </g>
    <g fill="rgb(204,153,255)" text-rendering="geometricPrecision" shape-rendering="geometricPrecision" transform="matrix(1,0,0,1,-121,-218)" stroke="rgb(204,153,255)">
      <circle r="7.5" clip-path="url(#clipPath2)" cx="250.317" cy="272.0996" stroke="none"/>
    </g>
    <g text-rendering="geometricPrecision" stroke-miterlimit="1.45" stroke-width="2" shape-rendering="geometricPrecision" transform="matrix(1,0,0,1,-121,-218)" stroke-linecap="butt">
      <circle fill="none" r="7.5" clip-path="url(#clipPath2)" cx="250.317" cy="272.0996"/>
    </g>
    <g fill="white" text-rendering="geometricPrecision" shape-rendering="geometricPrecision" transform="matrix(1,0,0,1,-121,-218)" stroke="white">
      <rect x="604.0199" y="233.1992" clip-path="url(#clipPath2)" width="192" rx="4" ry="4" height="80" stroke="none"/>
    </g>
    <g text-rendering="geometricPrecision" stroke-miterlimit="1.45" stroke-width="3" shape-rendering="geometricPrecision" transform="matrix(1,0,0,1,-121,-218)" stroke-linecap="butt">
      <rect x="604.0199" y="233.1992" clip-path="url(#clipPath2)" fill="none" width="192" rx="4" ry="4" height="80"/>
      <text x="634.3246" font-size="24px" y="282.2696" clip-path="url(#clipPath2)" font-family="sans-serif" stroke="none" stroke-width="1" xml:space="preserve">CONSUMER</text>
    </g>
    <g fill="rgb(153,204,0)" text-rendering="geometricPrecision" shape-rendering="geometricPrecision" transform="matrix(1,0,0,1,-121,-218)" stroke="rgb(153,204,0)">
      <circle r="7.5" clip-path="url(#clipPath2)" cx="525" cy="290.3915" stroke="none"/>
    </g>
    <g stroke-linecap="butt" transform="matrix(1,0,0,1,-121,-218)" text-rendering="geometricPrecision" shape-rendering="geometricPrecision" stroke-dasharray="12,4" stroke-width="2" stroke-miterlimit="1.45">
      <circle fill="none" r="7.5" clip-path="url(#clipPath2)" cx="525" cy="290.3915"/>
    </g>
    <g fill="rgb(255,255,153)" text-rendering="geometricPrecision" shape-rendering="geometricPrecision" transform="matrix(1,0,0,1,-121,-218)" stroke="rgb(255,255,153)">
      <circle r="7.5" clip-path="url(#clipPath2)" cx="525" cy="317.3915" stroke="none"/>
    </g>
    <g stroke-linecap="butt" transform="matrix(1,0,0,1,-121,-218)" text-rendering="geometricPrecision" shape-rendering="geometricPrecision" stroke-dasharray="12,4" stroke-width="2" stroke-miterlimit="1.45">
      <circle fill="none" r="7.5" clip-path="url(#clipPath2)" cx="525" cy="317.3915"/>
    </g>
    <g fill="rgb(204,153,255)" text-rendering="geometricPrecision" shape-rendering="geometricPrecision" transform="matrix(1,0,0,1,-121,-218)" stroke="rgb(204,153,255)">
      <circle r="7.5" clip-path="url(#clipPath2)" cx="525" cy="344.3915" stroke="none"/>
    </g>
    <g stroke-linecap="butt" transform="matrix(1,0,0,1,-121,-218)" text-rendering="geometricPrecision" shape-rendering="geometricPrecision" stroke-dasharray="12,4" stroke-width="2" stroke-miterlimit="1.45">
      <circle fill="none" r="7.5" clip-path="url(#clipPath2)" cx="525" cy="344.3915"/>
    </g>
    <g fill="white" text-rendering="geometricPrecision" shape-rendering="geometricPrecision" transform="matrix(1,0,0,1,-121,-218)" stroke="white">
      <rect x="604.0199" y="360.1162" clip-path="url(#clipPath2)" width="192" rx="4" ry="4" height="80" stroke="none"/>
    </g>
    <g text-rendering="geometricPrecision" stroke-miterlimit="1.45" stroke-width="3" shape-rendering="geometricPrecision" transform="matrix(1,0,0,1,-121,-218)" stroke-linecap="butt">
      <rect x="604.0199" y="360.1162" clip-path="url(#clipPath2)" fill="none" width="192" rx="4" ry="4" height="80"/>
      <text x="634.3246" font-size="24px" y="409.1865" clip-path="url(#clipPath2)" font-family="sans-serif" stroke="none" stroke-width="1" xml:space="preserve">CONSUMER</text>
    </g>
    <g fill="rgb(153,204,0)" text-rendering="geometricPrecision" shape-rendering="geometricPrecision" transform="matrix(1,0,0,1,-121,-218)" stroke="rgb(153,204,0)">
      <circle r="7.5" clip-path="url(#clipPath2)" cx="525" cy="418.7573" stroke="none"/>
    </g>
    <g stroke-linecap="butt" transform="matrix(1,0,0,1,-121,-218)" text-rendering="geometricPrecision" shape-rendering="geometricPrecision" stroke-dasharray="12,4" stroke-width="2" stroke-miterlimit="1.45">
      <circle fill="none" r="7.5" clip-path="url(#clipPath2)" cx="525" cy="418.7573"/>
    </g>
    <g fill="rgb(255,255,153)" text-rendering="geometricPrecision" shape-rendering="geometricPrecision" transform="matrix(1,0,0,1,-121,-218)" stroke="rgb(255,255,153)">
      <circle r="7.5" clip-path="url(#clipPath2)" cx="525" cy="445.7573" stroke="none"/>
    </g>
    <g stroke-linecap="butt" transform="matrix(1,0,0,1,-121,-218)" text-rendering="geometricPrecision" shape-rendering="geometricPrecision" stroke-dasharray="12,4" stroke-width="2" stroke-miterlimit="1.45">
      <circle fill="none" r="7.5" clip-path="url(#clipPath2)" cx="525" cy="445.7573"/>
    </g>
    <g fill="rgb(204,153,255)" text-rendering="geometricPrecision" shape-rendering="geometricPrecision" transform="matrix(1,0,0,1,-121,-218)" stroke="rgb(204,153,255)">
      <circle r="7.5" clip-path="url(#clipPath2)" cx="525" cy="472.7573" stroke="none"/>
    </g>
    <g stroke-linecap="butt" transform="matrix(1,0,0,1,-121,-218)" text-rendering="geometricPrecision" shape-rendering="geometricPrecision" stroke-dasharray="12,4" stroke-width="2" stroke-miterlimit="1.45">
      <circle fill="none" r="7.5" clip-path="url(#clipPath2)" cx="525" cy="472.7573"/>
    </g>
    <g fill="rgb(153,204,0)" text-rendering="geometricPrecision" shape-rendering="geometricPrecision" transform="matrix(1,0,0,1,-121,-218)" stroke="rgb(153,204,0)">
      <circle r="7.5" clip-path="url(#clipPath2)" cx="329.5815" cy="355.0581" stroke="none"/>
    </g>
    <g text-rendering="geometricPrecision" stroke-miterlimit="1.45" stroke-width="2" shape-rendering="geometricPrecision" transform="matrix(1,0,0,1,-121,-218)" stroke-linecap="butt">
      <circle fill="none" r="7.5" clip-path="url(#clipPath2)" cx="329.5815" cy="355.0581"/>
    </g>
    <g fill="rgb(255,255,153)" text-rendering="geometricPrecision" shape-rendering="geometricPrecision" transform="matrix(1,0,0,1,-121,-218)" stroke="rgb(255,255,153)">
      <circle r="7.5" clip-path="url(#clipPath2)" cx="329.5815" cy="382.0581" stroke="none"/>
    </g>
    <g text-rendering="geometricPrecision" stroke-miterlimit="1.45" stroke-width="2" shape-rendering="geometricPrecision" transform="matrix(1,0,0,1,-121,-218)" stroke-linecap="butt">
      <circle fill="none" r="7.5" clip-path="url(#clipPath2)" cx="329.5815" cy="382.0581"/>
    </g>
    <g fill="rgb(204,153,255)" text-rendering="geometricPrecision" shape-rendering="geometricPrecision" transform="matrix(1,0,0,1,-121,-218)" stroke="rgb(204,153,255)">
      <circle r="7.5" clip-path="url(#clipPath2)" cx="329.5815" cy="409.0581" stroke="none"/>
    </g>
    <g text-rendering="geometricPrecision" stroke-miterlimit="1.45" stroke-width="2" shape-rendering="geometricPrecision" transform="matrix(1,0,0,1,-121,-218)" stroke-linecap="butt">
      <circle fill="none" r="7.5" clip-path="url(#clipPath2)" cx="329.5815" cy="409.0581"/>
      <path fill="none" d="M422.4985 355.0581 L471.7253 355.0581" clip-path="url(#clipPath2)"/>
      <path fill="white" d="M0 0 L-16 -6 L-16 6 Z" clip-path="url(#clipPath3)" transform="matrix(1.125,0,0,1.125,471.7253,355.0581)" stroke="none"/>
      <path fill="none" d="M0 0 L-16 -6 L-16 6 Z" stroke-width="1" clip-path="url(#clipPath3)" transform="matrix(1.125,0,0,1.125,471.7253,355.0581)"/>
      <line transform="matrix(1.125,0,0,1.125,471.7253,355.0581)" clip-path="url(#clipPath3)" fill="none" x1="-21" x2="-21" y1="-8" y2="8" stroke-width="1"/>
    </g>
    <g text-rendering="geometricPrecision" stroke-miterlimit="1.45" stroke-width="2" shape-rendering="geometricPrecision" transform="matrix(1,0,0,1,-121,-218)" stroke-linecap="butt">
      <path fill="none" d="M188.9516 279.5996 L188.9516 315.0813" clip-path="url(#clipPath2)"/>
      <path fill="none" d="M219.74 279.5996 L219.74 315.0813" clip-path="url(#clipPath2)"/>
      <path fill="none" d="M250.317 279.5996 L250.317 315.0813" clip-path="url(#clipPath2)"/>
      <path fill="none" stroke-dasharray="18,6" d="M604.0207 254.645 L482.7734 254.645" stroke-width="3" clip-path="url(#clipPath2)"/>
      <path stroke-dasharray="18,6" d="M477.7734 254.645 L487.7734 262.145 L484.0234 254.645 L487.7734 247.145 Z" stroke-width="3" clip-path="url(#clipPath2)" stroke="none"/>
      <path fill="none" stroke-dasharray="12,4" d="M532.4991 290.5078 L604.0099 291.6172" clip-path="url(#clipPath2)"/>
      <path fill="white" stroke-dasharray="12,4" d="M0 0 L-16 -6 L-16 6 Z" clip-path="url(#clipPath4)" transform="matrix(1.1249,0.0175,-0.0175,1.1249,604.0099,291.6172)" stroke="none"/>
      <path fill="none" d="M0 0 L-16 -6 L-16 6 Z" stroke-width="1" clip-path="url(#clipPath4)" transform="matrix(1.1249,0.0175,-0.0175,1.1249,604.0099,291.6172)"/>
      <line transform="matrix(1.1249,0.0175,-0.0175,1.1249,604.0099,291.6172)" clip-path="url(#clipPath4)" fill="none" x1="-21" x2="-21" y1="-8" y2="8" stroke-width="1"/>
    </g>
    <g stroke-linecap="butt" transform="matrix(1,0,0,1,-121,-218)" text-rendering="geometricPrecision" shape-rendering="geometricPrecision" stroke-dasharray="12,4" stroke-width="2" stroke-miterlimit="1.45">
      <path fill="none" d="M517.5 290.3915 L477.7734 290.3915" clip-path="url(#clipPath2)"/>
      <path fill="none" stroke-dasharray="none" d="M525 297.8915 L525 309.8915" clip-path="url(#clipPath2)"/>
      <path fill="none" stroke-dasharray="none" d="M525 324.8915 L525 336.8915" clip-path="url(#clipPath2)"/>
      <path fill="none" stroke-dasharray="18,6" d="M604.0108 382.7843 L482.7577 382.7843" stroke-width="3" clip-path="url(#clipPath2)"/>
      <path stroke-dasharray="18,6" d="M477.7577 382.7843 L487.7577 390.2843 L484.0077 382.7843 L487.7577 375.2843 Z" stroke-width="3" clip-path="url(#clipPath2)" stroke="none"/>
      <path fill="none" d="M532.5 418.7573 L604.0101 418.7573" clip-path="url(#clipPath2)"/>
      <path fill="white" d="M0 0 L-16 -6 L-16 6 Z" clip-path="url(#clipPath5)" transform="matrix(1.125,0,0,1.125,604.0101,418.7573)" stroke="none"/>
      <path fill="none" stroke-dasharray="none" d="M0 0 L-16 -6 L-16 6 Z" stroke-width="1" clip-path="url(#clipPath5)" transform="matrix(1.125,0,0,1.125,604.0101,418.7573)"/>
      <line transform="matrix(1.125,0,0,1.125,604.0101,418.7573)" clip-path="url(#clipPath5)" fill="none" x1="-21" x2="-21" y1="-8" y2="8" stroke-dasharray="none" stroke-width="1"/>
    </g>
    <g stroke-linecap="butt" transform="matrix(1,0,0,1,-121,-218)" text-rendering="geometricPrecision" shape-rendering="geometricPrecision" stroke-dasharray="12,4" stroke-width="2" stroke-miterlimit="1.45">
      <path fill="none" d="M517.5 418.7573 L477.7966 418.7573" clip-path="url(#clipPath2)"/>
      <path fill="none" stroke-dasharray="none" d="M525 426.2573 L525 438.2573" clip-path="url(#clipPath2)"/>
      <path fill="none" stroke-dasharray="none" d="M525 453.2573 L525 465.2573" clip-path="url(#clipPath2)"/>
      <path fill="none" stroke-dasharray="none" d="M362.4847 355.0581 L337.0815 355.0581" clip-path="url(#clipPath2)"/>
      <path fill="none" stroke-dasharray="none" d="M322.0815 355.0581 L286.4874 355.0581" clip-path="url(#clipPath2)"/>
      <path fill="none" stroke-dasharray="none" d="M329.5815 362.5581 L329.5815 374.5581" clip-path="url(#clipPath2)"/>
      <path fill="none" stroke-dasharray="none" d="M329.5815 389.5581 L329.5815 401.5581" clip-path="url(#clipPath2)"/>
    </g>
  </g>
</svg>
