<?xml version="1.0" encoding="UTF-8"?><svg xmlns="http://www.w3.org/2000/svg" xmlns:xlink="http://www.w3.org/1999/xlink" fill-opacity="1" color-rendering="auto" color-interpolation="auto" text-rendering="auto" stroke="black" stroke-linecap="square" width="318" stroke-miterlimit="10" shape-rendering="auto" stroke-opacity="1" fill="black" stroke-dasharray="none" font-weight="normal" stroke-width="1" height="191" font-family="'Dialog'" font-style="normal" stroke-linejoin="miter" font-size="12px" stroke-dashoffset="0" image-rendering="auto">
  <!--Generated by ySVG 2.5-->
  <defs id="genericDefs"/>
  <g>
    <defs id="defs1">
      <linearGradient x1="362.5" gradientUnits="userSpaceOnUse" x2="422.5" y1="325.0581" y2="385.0581" id="linearGradient1" spreadMethod="reflect">
        <stop stop-opacity="0.902" stop-color="rgb(255,255,255)" offset="0%"/>
        <stop stop-opacity="1" stop-color="white" offset="100%"/>
      </linearGradient>
      <linearGradient x1="362.5" gradientUnits="userSpaceOnUse" x2="422.5" y1="325.0581" y2="385.0581" id="linearGradient2" spreadMethod="reflect">
        <stop stop-opacity="0.902" stop-color="rgb(255,255,255)" offset="0%"/>
        <stop stop-opacity="1" stop-color="white" offset="100%"/>
      </linearGradient>
      <clipPath clipPathUnits="userSpaceOnUse" id="clipPath1">
        <path d="M0 0 L318 0 L318 191 L0 191 L0 0 Z"/>
      </clipPath>
      <clipPath clipPathUnits="userSpaceOnUse" id="clipPath2">
        <path d="M170 249 L488 249 L488 440 L170 440 L170 249 Z"/>
      </clipPath>
      <clipPath clipPathUnits="userSpaceOnUse" id="clipPath3">
        <path d="M-263.9614 -94.2739 L18.7053 -94.2739 L18.7053 75.5039 L-263.9614 75.5039 L-263.9614 -94.2739 Z"/>
      </clipPath>
    </defs>
    <g fill="white" text-rendering="geometricPrecision" shape-rendering="geometricPrecision" transform="translate(-170,-249)" stroke="white">
      <rect x="170" width="318" height="191" y="249" clip-path="url(#clipPath2)" stroke="none"/>
    </g>
    <g text-rendering="geometricPrecision" shape-rendering="geometricPrecision" transform="matrix(1,0,0,1,-170,-249)">
      <rect x="467" width="6" height="138.9419" y="285.5871" clip-path="url(#clipPath2)" stroke="none"/>
      <rect stroke-linecap="butt" x="467" y="285.5871" clip-path="url(#clipPath2)" fill="none" width="6" height="138.9419" stroke-miterlimit="1.45"/>
    </g>
    <g fill="white" text-rendering="geometricPrecision" shape-rendering="geometricPrecision" transform="matrix(1,0,0,1,-170,-249)" stroke="white">
      <path d="M205.9 315.0581 L345.5 315.0581 L325.1 395.0581 L185.5 395.0581 Z" stroke="none" clip-path="url(#clipPath2)"/>
    </g>
    <g text-rendering="geometricPrecision" stroke-miterlimit="1.45" stroke-width="3" shape-rendering="geometricPrecision" transform="matrix(1,0,0,1,-170,-249)" stroke-linecap="butt">
      <path fill="none" d="M205.9 315.0581 L345.5 315.0581 L325.1 395.0581 L185.5 395.0581 Z" clip-path="url(#clipPath2)"/>
      <text x="232.3652" font-size="24px" y="364.1284" clip-path="url(#clipPath2)" font-family="sans-serif" stroke="none" stroke-width="1" xml:space="preserve">DATA</text>
    </g>
    <g fill="url(#linearGradient1)" text-rendering="geometricPrecision" shape-rendering="geometricPrecision" transform="matrix(1,0,0,1,-170,-249)" stroke="url(#linearGradient1)">
      <path d="M422.5 355.0581 C422.5 371.6266 409.0685 385.0581 392.5 385.0581 C375.9315 385.0581 362.5 371.6266 362.5 355.0581 C362.5 338.4896 375.9315 325.0581 392.5 325.0581 C409.0685 325.0581 422.5 338.4896 422.5 355.0581 Z" stroke="none" clip-path="url(#clipPath2)"/>
    </g>
    <g stroke-linecap="butt" transform="matrix(1,0,0,1,-170,-249)" fill="rgb(255,153,0)" text-rendering="geometricPrecision" shape-rendering="geometricPrecision" stroke="rgb(255,153,0)" stroke-width="2" stroke-miterlimit="1.45">
      <path fill="none" d="M422.5 355.0581 C422.5 371.6266 409.0685 385.0581 392.5 385.0581 C375.9315 385.0581 362.5 371.6266 362.5 355.0581 C362.5 338.4896 375.9315 325.0581 392.5 325.0581 C409.0685 325.0581 422.5 338.4896 422.5 355.0581 Z" clip-path="url(#clipPath2)"/>
      <path fill="url(#linearGradient2)" d="M415.093 355.0581 C415.093 367.5359 404.9778 377.6511 392.5 377.6511 C380.0222 377.6511 369.907 367.5359 369.907 355.0581 C369.907 342.5803 380.0222 332.4651 392.5 332.4651 C404.9778 332.4651 415.093 342.5803 415.093 355.0581 Z" clip-path="url(#clipPath2)" stroke="none"/>
    </g>
    <g text-rendering="geometricPrecision" shape-rendering="geometricPrecision" transform="matrix(1,0,0,1,-170,-249)" stroke-linecap="round" stroke-linejoin="round">
      <path fill="none" d="M415.093 355.0581 C415.093 367.5359 404.9778 377.6511 392.5 377.6511 C380.0222 377.6511 369.907 367.5359 369.907 355.0581 C369.907 342.5803 380.0222 332.4651 392.5 332.4651 C404.9778 332.4651 415.093 342.5803 415.093 355.0581 Z" clip-path="url(#clipPath2)"/>
      <path fill="none" d="M411.8848 355.0581 L414.9574 355.0581 M409.2877 364.7505 L411.9487 366.2868 M402.1924 371.8458 L403.7287 374.5068 M392.5 374.4429 L392.5 377.5155 M382.8076 371.8458 L381.2713 374.5068 M375.7123 364.7505 L373.0513 366.2868 M373.1152 355.0581 L370.0426 355.0581 M375.7123 345.3657 L373.0513 343.8294 M382.8076 338.2704 L381.2713 335.6094 M392.5 335.6733 L392.5 332.6006 M402.1924 338.2704 L403.7287 335.6094 M409.2877 345.3657 L411.9487 343.8294 M396.2109 337.5997 L392.5 355.0581 L405.5136 355.0581" clip-path="url(#clipPath2)"/>
    </g>
    <g fill="rgb(153,204,0)" text-rendering="geometricPrecision" shape-rendering="geometricPrecision" transform="matrix(1,0,0,1,-170,-249)" stroke="rgb(153,204,0)">
      <circle r="7.5" clip-path="url(#clipPath2)" cx="237.7885" cy="272.0996" stroke="none"/>
    </g>
    <g text-rendering="geometricPrecision" stroke-miterlimit="1.45" stroke-width="2" shape-rendering="geometricPrecision" transform="matrix(1,0,0,1,-170,-249)" stroke-linecap="butt">
      <circle fill="none" r="7.5" clip-path="url(#clipPath2)" cx="237.7885" cy="272.0996"/>
    </g>
    <g fill="rgb(255,255,153)" text-rendering="geometricPrecision" shape-rendering="geometricPrecision" transform="matrix(1,0,0,1,-170,-249)" stroke="rgb(255,255,153)">
      <circle r="7.5" clip-path="url(#clipPath2)" cx="268.577" cy="272.0996" stroke="none"/>
    </g>
    <g text-rendering="geometricPrecision" stroke-miterlimit="1.45" stroke-width="2" shape-rendering="geometricPrecision" transform="matrix(1,0,0,1,-170,-249)" stroke-linecap="butt">
      <circle fill="none" r="7.5" clip-path="url(#clipPath2)" cx="268.577" cy="272.0996"/>
    </g>
    <g fill="rgb(204,153,255)" text-rendering="geometricPrecision" shape-rendering="geometricPrecision" transform="matrix(1,0,0,1,-170,-249)" stroke="rgb(204,153,255)">
      <circle r="7.5" clip-path="url(#clipPath2)" cx="299.1539" cy="272.0996" stroke="none"/>
    </g>
    <g text-rendering="geometricPrecision" stroke-miterlimit="1.45" stroke-width="2" shape-rendering="geometricPrecision" transform="matrix(1,0,0,1,-170,-249)" stroke-linecap="butt">
      <circle fill="none" r="7.5" clip-path="url(#clipPath2)" cx="299.1539" cy="272.0996"/>
      <path fill="none" d="M422.511 355.0581 L466.9565 355.0581" clip-path="url(#clipPath2)"/>
      <path fill="white" d="M0 0 L-16 -6 L-16 6 Z" clip-path="url(#clipPath3)" transform="matrix(1.125,0,0,1.125,466.9565,355.0581)" stroke="none"/>
      <path fill="none" d="M0 0 L-16 -6 L-16 6 Z" stroke-width="1" clip-path="url(#clipPath3)" transform="matrix(1.125,0,0,1.125,466.9565,355.0581)"/>
      <line transform="matrix(1.125,0,0,1.125,466.9565,355.0581)" clip-path="url(#clipPath3)" fill="none" x1="-21" x2="-21" y1="-8" y2="8" stroke-width="1"/>
    </g>
    <g text-rendering="geometricPrecision" stroke-miterlimit="1.45" stroke-width="2" shape-rendering="geometricPrecision" transform="matrix(1,0,0,1,-170,-249)" stroke-linecap="butt">
      <path fill="none" d="M362.5173 355.0581 L335.2786 355.0581" clip-path="url(#clipPath2)"/>
      <path fill="none" d="M237.7885 279.5996 L237.7885 315.0813" clip-path="url(#clipPath2)"/>
      <path fill="none" d="M268.577 279.5996 L268.577 315.0813" clip-path="url(#clipPath2)"/>
      <path fill="none" d="M299.1539 279.5996 L299.1539 315.0813" clip-path="url(#clipPath2)"/>
    </g>
  </g>
</svg>
